<svg width="18" height="19" viewBox="0 0 18 19" fill="none" xmlns="http://www.w3.org/2000/svg">
<path d="M1.3738 10.6159C1.77786 11.0199 2.38394 10.9795 2.788 10.6159L7.43467 5.72677V17.3232C7.43467 17.8889 7.83873 18.293 8.40441 18.293H9.6974C10.2227 18.293 10.6671 17.8889 10.6671 17.3232V5.72677L15.2734 10.5755C15.6775 10.9795 16.2835 10.9795 16.6876 10.6159L17.5765 9.72695C17.9402 9.32289 17.9402 8.71681 17.5765 8.35315L9.6974 0.474018C9.33375 0.110365 8.72766 0.110365 8.36401 0.474018L0.48487 8.35315C0.121217 8.71681 0.121217 9.32289 0.48487 9.72695L1.3738 10.6159Z" fill="black" fill-opacity="0.62"/>
</svg>
