<svg width="18" height="19" viewBox="0 0 18 19" fill="none" xmlns="http://www.w3.org/2000/svg">
<path d="M1.3738 8.38412C1.77786 7.98006 2.38394 8.02047 2.788 8.38412L7.43467 13.2732V1.67675C7.43467 1.11107 7.83873 0.707014 8.40441 0.707014H9.6974C10.2227 0.707014 10.6671 1.11107 10.6671 1.67675V13.2732L15.2734 8.42453C15.6775 8.02047 16.2835 8.02047 16.6876 8.38412L17.5765 9.27305C17.9402 9.67711 17.9402 10.2832 17.5765 10.6468L9.6974 18.526C9.33375 18.8896 8.72766 18.8896 8.36401 18.526L0.48487 10.6468C0.121217 10.2832 0.121217 9.67711 0.48487 9.27305L1.3738 8.38412Z" fill="black" fill-opacity="0.62"/>
</svg>
