<svg width="20" height="20" viewBox="0 0 20 20" fill="none" xmlns="http://www.w3.org/2000/svg">
<path d="M19.411 16.5878C20.1922 17.369 20.1922 18.6345 19.411 19.4157C19.0235 19.8063 18.5111 20 17.9986 20C17.4861 20 16.9749 19.8047 16.585 19.4141L9.99922 12.8318L3.41411 19.4125C3.02351 19.8063 2.51168 20 1.99984 20C1.48801 20 0.976799 19.8063 0.585892 19.4125C-0.195297 18.6314 -0.195297 17.3658 0.585892 16.5846L7.17288 9.99766L0.585892 3.4138C-0.195297 2.63261 -0.195297 1.36708 0.585892 0.585892C1.36708 -0.195297 2.63261 -0.195297 3.4138 0.585892L9.99922 7.176L16.5862 0.589017C17.3674 -0.192172 18.6329 -0.192172 19.4141 0.589017C20.1953 1.37021 20.1953 2.63573 19.4141 3.41692L12.8271 10.0039L19.411 16.5878Z" fill="#A6A6A6"/>
</svg>
