<svg width="17" height="17" viewBox="0 0 17 17" fill="none" xmlns="http://www.w3.org/2000/svg">
<path d="M2.125 13.2812C2.125 13.5734 2.36273 13.8125 2.65625 13.8125H15.9375C16.5252 13.8125 17 14.2873 17 14.875C17 15.4627 16.5252 15.9375 15.9375 15.9375H2.65625C1.18934 15.9375 0 14.7488 0 13.2812V2.125C0 1.5383 0.475801 1.0625 1.0625 1.0625C1.6492 1.0625 2.125 1.5383 2.125 2.125V13.2812ZM11.3754 9.25039C10.9604 9.66543 10.2896 9.66543 9.87461 9.25039L7.96875 7.34785L5.00039 10.3129C4.58535 10.7279 3.91465 10.7279 3.49961 10.3129C3.08391 9.89785 3.08391 9.22715 3.49961 8.81211L7.21836 5.09336C7.6334 4.67832 8.3041 4.67832 8.71914 5.09336L10.625 6.9959L14.1246 3.49961C14.5396 3.08391 15.2104 3.08391 15.6254 3.49961C16.0404 3.91465 16.0404 4.58535 15.6254 5.00039L11.3754 9.25039Z" fill="black"/>
</svg>
