<svg width="162" height="43" viewBox="0 0 162 43" fill="none" xmlns="http://www.w3.org/2000/svg">
<path d="M63.94 23.28C63.94 23.9213 64.0873 24.4933 64.382 24.996C64.694 25.4813 65.1013 25.8627 65.604 26.14C66.124 26.4 66.7047 26.53 67.346 26.53C67.97 26.53 68.542 26.4 69.062 26.14C69.5993 25.8627 70.1367 25.412 70.674 24.788C70.7433 24.7187 70.804 24.684 70.856 24.684C70.908 24.6667 71.0033 24.6927 71.142 24.762L73.014 25.542C73.2567 25.646 73.2827 25.8193 73.092 26.062C72.5373 26.8593 71.9567 27.492 71.35 27.96C70.7433 28.428 70.0673 28.766 69.322 28.974C68.594 29.1647 67.7707 29.26 66.852 29.26C65.5 29.26 64.2953 28.9653 63.238 28.376C62.1807 27.7867 61.34 26.972 60.716 25.932C60.1093 24.8747 59.806 23.67 59.806 22.318C59.806 20.8273 60.118 19.536 60.742 18.444C61.3833 17.3347 62.2327 16.4767 63.29 15.87C64.3473 15.2633 65.5087 14.96 66.774 14.96C68.1087 14.96 69.2787 15.2547 70.284 15.844C71.2893 16.416 72.078 17.2393 72.65 18.314C73.2393 19.3887 73.534 20.6973 73.534 22.24C73.534 22.4307 73.5167 22.578 73.482 22.682C73.4473 22.786 73.3173 22.8467 73.092 22.864H64.252C64.148 22.864 64.07 22.8987 64.018 22.968C63.966 23.0373 63.94 23.1413 63.94 23.28ZM69.166 20.68C69.3567 20.68 69.478 20.6627 69.53 20.628C69.582 20.576 69.608 20.472 69.608 20.316C69.608 19.8827 69.504 19.4407 69.296 18.99C69.1053 18.5393 68.8107 18.1667 68.412 17.872C68.0307 17.56 67.5367 17.404 66.93 17.404C66.358 17.404 65.8467 17.5427 65.396 17.82C64.9453 18.0973 64.5987 18.4873 64.356 18.99C64.1133 19.4753 63.992 20.03 63.992 20.654L69.166 20.68ZM81.9564 14.96C83.083 14.96 84.0364 15.1593 84.8164 15.558C85.6137 15.9393 86.2637 16.4333 86.7664 17.04C87.269 17.6467 87.6244 18.2707 87.8324 18.912C87.9537 19.2587 87.8497 19.4407 87.5204 19.458L84.7904 19.718C84.5997 19.7353 84.4697 19.64 84.4004 19.432C84.2444 19.1027 84.071 18.7993 83.8804 18.522C83.6897 18.2447 83.4557 18.0193 83.1784 17.846C82.901 17.6727 82.537 17.586 82.0864 17.586C81.497 17.586 80.977 17.7507 80.5264 18.08C80.0757 18.4093 79.7204 18.912 79.4604 19.588C79.2177 20.2467 79.0964 21.0873 79.0964 22.11C79.0964 23.15 79.2264 24.008 79.4864 24.684C79.7464 25.36 80.1104 25.8627 80.5784 26.192C81.0637 26.5213 81.6357 26.686 82.2944 26.686C83.057 26.686 83.655 26.4867 84.0884 26.088C84.539 25.6893 84.9637 25.152 85.3624 24.476C85.4144 24.3893 85.4664 24.3373 85.5184 24.32C85.5704 24.3027 85.6657 24.3113 85.8044 24.346L87.7284 24.788C87.919 24.84 87.9797 25.0047 87.9104 25.282C87.7717 25.6633 87.555 26.088 87.2604 26.556C86.9657 27.024 86.5757 27.4573 86.0904 27.856C85.6224 28.2547 85.0417 28.5927 84.3484 28.87C83.6724 29.13 82.875 29.26 81.9564 29.26C80.6217 29.26 79.4344 28.9653 78.3944 28.376C77.3544 27.7693 76.531 26.9373 75.9244 25.88C75.335 24.8053 75.0404 23.566 75.0404 22.162C75.0404 20.7407 75.3437 19.4927 75.9504 18.418C76.557 17.326 77.3804 16.4767 78.4204 15.87C79.4604 15.2633 80.639 14.96 81.9564 14.96ZM96.2525 29.26C94.8832 29.26 93.6698 28.9567 92.6125 28.35C91.5725 27.7433 90.7578 26.9113 90.1685 25.854C89.5792 24.7793 89.2845 23.5573 89.2845 22.188C89.2845 20.7493 89.5878 19.4927 90.1945 18.418C90.8012 17.326 91.6332 16.4767 92.6905 15.87C93.7478 15.2633 94.9438 14.96 96.2785 14.96C97.6825 14.96 98.9045 15.272 99.9445 15.896C100.985 16.5027 101.791 17.352 102.363 18.444C102.952 19.5187 103.247 20.758 103.247 22.162C103.247 23.5487 102.952 24.7793 102.363 25.854C101.773 26.9113 100.95 27.7433 99.8925 28.35C98.8525 28.9567 97.6392 29.26 96.2525 29.26ZM96.2785 26.608C96.9198 26.608 97.4572 26.4433 97.8905 26.114C98.3238 25.7673 98.6445 25.256 98.8525 24.58C99.0778 23.904 99.1905 23.0807 99.1905 22.11C99.1905 21.0873 99.0778 20.2467 98.8525 19.588C98.6445 18.912 98.3238 18.4007 97.8905 18.054C97.4572 17.7073 96.9198 17.534 96.2785 17.534C95.6545 17.534 95.1172 17.7073 94.6665 18.054C94.2332 18.4007 93.9038 18.912 93.6785 19.588C93.4532 20.2467 93.3405 21.0873 93.3405 22.11C93.3405 23.098 93.4532 23.93 93.6785 24.606C93.9038 25.2647 94.2332 25.7673 94.6665 26.114C95.1172 26.4433 95.6545 26.608 96.2785 26.608ZM110.839 17.976C110.649 17.976 110.553 18.08 110.553 18.288V24.554C110.553 25.1433 110.692 25.568 110.969 25.828C111.247 26.0707 111.689 26.192 112.295 26.192H113.699C113.821 26.192 113.916 26.2353 113.985 26.322C114.055 26.4087 114.089 26.5127 114.089 26.634L114.063 28.22C114.063 28.5493 113.873 28.7573 113.491 28.844C113.179 28.8787 112.841 28.9133 112.477 28.948C112.131 28.9653 111.775 28.9827 111.411 29C111.065 29 110.727 29 110.397 29C109.219 29 108.283 28.7227 107.589 28.168C106.896 27.596 106.549 26.7553 106.549 25.646V18.366C106.549 18.106 106.437 17.976 106.211 17.976H104.625C104.296 17.976 104.131 17.8287 104.131 17.534V15.61C104.131 15.35 104.287 15.22 104.599 15.22H106.393C106.549 15.22 106.636 15.1247 106.653 14.934L107.017 10.982C107.035 10.6873 107.165 10.54 107.407 10.54H110.241C110.519 10.54 110.657 10.7047 110.657 11.034V14.934C110.657 15.1073 110.744 15.194 110.917 15.194H113.647C113.959 15.194 114.115 15.3327 114.115 15.61V17.534C114.115 17.8287 113.942 17.976 113.595 17.976H110.839ZM123.674 27.674C123.137 28.1593 122.53 28.5493 121.854 28.844C121.195 29.1213 120.433 29.26 119.566 29.26C118.249 29.26 117.209 28.9047 116.446 28.194C115.701 27.4833 115.328 26.5733 115.328 25.464C115.328 24.4933 115.631 23.644 116.238 22.916C116.845 22.188 117.711 21.6247 118.838 21.226C119.965 20.81 121.308 20.5847 122.868 20.55L123.778 20.472C123.882 20.472 123.977 20.446 124.064 20.394C124.151 20.342 124.194 20.2467 124.194 20.108V19.562C124.194 18.9033 124.003 18.392 123.622 18.028C123.241 17.6467 122.695 17.456 121.984 17.456C121.464 17.456 120.961 17.5773 120.476 17.82C120.008 18.0453 119.609 18.444 119.28 19.016C119.228 19.1373 119.167 19.2153 119.098 19.25C119.029 19.2847 118.899 19.2847 118.708 19.25L116.108 18.652C116.004 18.6173 115.926 18.5653 115.874 18.496C115.839 18.4093 115.874 18.236 115.978 17.976C116.411 16.9533 117.157 16.1993 118.214 15.714C119.289 15.2113 120.606 14.96 122.166 14.96C123.605 14.96 124.749 15.142 125.598 15.506C126.447 15.87 127.063 16.3813 127.444 17.04C127.825 17.6813 128.016 18.4353 128.016 19.302V28.428C128.016 28.636 127.981 28.7833 127.912 28.87C127.843 28.9567 127.713 29 127.522 29H124.844C124.653 29 124.515 28.9307 124.428 28.792C124.359 28.6533 124.315 28.48 124.298 28.272L124.246 27.7C124.211 27.388 124.021 27.3793 123.674 27.674ZM124.194 22.864C124.194 22.5693 124.064 22.422 123.804 22.422L123.076 22.474C122.625 22.4913 122.175 22.5607 121.724 22.682C121.273 22.786 120.866 22.942 120.502 23.15C120.138 23.3407 119.835 23.592 119.592 23.904C119.367 24.1987 119.254 24.5453 119.254 24.944C119.254 25.464 119.436 25.88 119.8 26.192C120.164 26.4867 120.667 26.634 121.308 26.634C121.741 26.634 122.123 26.5647 122.452 26.426C122.799 26.2873 123.093 26.1227 123.336 25.932C123.596 25.7067 123.804 25.4813 123.96 25.256C124.116 25.0307 124.194 24.7967 124.194 24.554V22.864ZM134.372 15.22C134.754 15.22 134.944 15.3933 134.944 15.74V16.52C134.944 16.624 134.979 16.6847 135.048 16.702C135.118 16.702 135.204 16.6587 135.308 16.572C135.586 16.312 135.889 16.0607 136.218 15.818C136.565 15.5753 136.972 15.376 137.44 15.22C137.908 15.0467 138.463 14.96 139.104 14.96C140.127 14.96 141.037 15.22 141.834 15.74C142.632 16.2427 143.264 17.014 143.732 18.054C144.2 19.0767 144.434 20.394 144.434 22.006C144.434 23.67 144.192 25.0393 143.706 26.114C143.221 27.1887 142.562 27.986 141.73 28.506C140.898 29.0087 139.954 29.26 138.896 29.26C138.22 29.26 137.596 29.156 137.024 28.948C136.452 28.74 135.915 28.402 135.412 27.934C135.239 27.7607 135.109 27.6827 135.022 27.7C134.953 27.7173 134.918 27.8473 134.918 28.09V32.848C134.918 33.1427 134.788 33.29 134.528 33.29H131.33C131.053 33.29 130.914 33.134 130.914 32.822V15.792C130.914 15.6013 130.958 15.4627 131.044 15.376C131.131 15.272 131.287 15.22 131.512 15.22H134.372ZM134.918 25.438C135.265 25.8193 135.638 26.1313 136.036 26.374C136.435 26.6167 136.894 26.738 137.414 26.738C138.021 26.738 138.541 26.582 138.974 26.27C139.425 25.9407 139.772 25.4293 140.014 24.736C140.257 24.0253 140.378 23.0893 140.378 21.928C140.378 20.8013 140.257 19.9173 140.014 19.276C139.772 18.6347 139.425 18.1753 138.974 17.898C138.541 17.6207 138.047 17.482 137.492 17.482C137.007 17.482 136.565 17.586 136.166 17.794C135.785 17.9847 135.482 18.2447 135.256 18.574C135.031 18.886 134.918 19.2153 134.918 19.562V25.438ZM150.216 15.22C150.597 15.22 150.788 15.3933 150.788 15.74V16.52C150.788 16.624 150.823 16.6847 150.892 16.702C150.961 16.702 151.048 16.6587 151.152 16.572C151.429 16.312 151.733 16.0607 152.062 15.818C152.409 15.5753 152.816 15.376 153.284 15.22C153.752 15.0467 154.307 14.96 154.948 14.96C155.971 14.96 156.881 15.22 157.678 15.74C158.475 16.2427 159.108 17.014 159.576 18.054C160.044 19.0767 160.278 20.394 160.278 22.006C160.278 23.67 160.035 25.0393 159.55 26.114C159.065 27.1887 158.406 27.986 157.574 28.506C156.742 29.0087 155.797 29.26 154.74 29.26C154.064 29.26 153.44 29.156 152.868 28.948C152.296 28.74 151.759 28.402 151.256 27.934C151.083 27.7607 150.953 27.6827 150.866 27.7C150.797 27.7173 150.762 27.8473 150.762 28.09V32.848C150.762 33.1427 150.632 33.29 150.372 33.29H147.174C146.897 33.29 146.758 33.134 146.758 32.822V15.792C146.758 15.6013 146.801 15.4627 146.888 15.376C146.975 15.272 147.131 15.22 147.356 15.22H150.216ZM150.762 25.438C151.109 25.8193 151.481 26.1313 151.88 26.374C152.279 26.6167 152.738 26.738 153.258 26.738C153.865 26.738 154.385 26.582 154.818 26.27C155.269 25.9407 155.615 25.4293 155.858 24.736C156.101 24.0253 156.222 23.0893 156.222 21.928C156.222 20.8013 156.101 19.9173 155.858 19.276C155.615 18.6347 155.269 18.1753 154.818 17.898C154.385 17.6207 153.891 17.482 153.336 17.482C152.851 17.482 152.409 17.586 152.01 17.794C151.629 17.9847 151.325 18.2447 151.1 18.574C150.875 18.886 150.762 19.2153 150.762 19.562V25.438Z" fill="#11263C"/>
<path d="M21.1061 43C19.7712 42.9982 18.4394 42.8761 17.1281 42.6353C13.3296 41.9325 9.80205 40.2434 6.92593 37.75C5.02962 36.1084 3.45394 34.1523 2.2737 31.9745C1.06049 29.7336 0.289518 27.2948 0 24.7824H6.03398C6.31292 26.5708 6.92332 28.2962 7.83603 29.8761C8.70784 31.3751 9.86124 32.7048 11.2374 33.7971C12.6365 34.9027 14.2307 35.7564 15.9436 36.3174C17.7849 36.9176 19.7168 37.2186 21.6604 37.2082C22.9547 37.2132 24.246 37.087 25.5129 36.8315C26.6652 36.5964 27.7854 36.2332 28.851 35.7494C29.8636 35.2859 30.8166 34.71 31.6906 34.0334C32.5589 33.3574 33.3492 32.5932 34.0477 31.754L29.1268 27.555C28.1137 28.5124 26.9334 29.2901 25.6402 29.8521C25.0505 30.0941 24.4349 30.2727 23.8047 30.3847C23.1343 30.5019 22.4542 30.5586 21.7729 30.5542C20.8719 30.5621 19.9747 30.4388 19.1119 30.1885C18.3263 29.9575 17.5915 29.5893 16.944 29.1022C16.2971 28.6071 15.7524 27.9992 15.3382 27.3103C14.8794 26.5377 14.5504 25.7 14.3634 24.8282H35.4614C35.5171 24.0776 35.5744 23.3017 35.5744 22.6476C35.5755 21.6232 35.5023 20.5999 35.3554 19.5853C35.2125 18.5987 34.9905 17.6242 34.6915 16.6707C34.1313 14.8327 33.2146 13.1138 31.9899 11.6053C30.7597 10.1066 29.1849 8.90414 27.3899 8.09295C26.4193 7.65768 25.4 7.33143 24.352 7.12063C23.1871 6.88863 22.0003 6.77404 20.8107 6.77871C18.9093 6.76982 17.0234 7.10931 15.2534 7.77912C13.5911 8.41415 12.068 9.34573 10.7638 10.525C9.4619 11.7038 8.38725 13.0959 7.58982 14.6367C6.75971 16.2379 6.21426 17.962 5.97619 19.7373H0.0635228C0.753831 14.8275 3.266 10.3252 7.13486 7.06409C11.0037 3.80294 15.9672 2.00387 21.1061 2C36.3044 2 53 20.2526 53 22.5C53 24.7474 36.3044 43 21.1061 43ZM27.2034 19.6484H14.2504C14.4026 18.7647 14.6757 17.9043 15.0624 17.0897C15.4058 16.3646 15.8754 15.7016 16.4508 15.1292C16.9994 14.5895 17.6557 14.1625 18.3801 13.8741C19.9518 13.2819 21.6977 13.2846 23.2674 13.8817C23.9878 14.172 24.6377 14.6039 25.1754 15.1497C25.7341 15.7233 26.1826 16.3879 26.5001 17.1128C26.8552 17.9226 27.0922 18.7759 27.2044 19.6484H27.2034Z" fill="url(#paint0_linear_1_122)"/>
<defs>
<linearGradient id="paint0_linear_1_122" x1="53" y1="22.5" x2="0.153801" y2="27.0087" gradientUnits="userSpaceOnUse">
<stop stop-color="#6CB16C"/>
<stop offset="1" stop-color="#00543F"/>
</linearGradient>
</defs>
</svg>
