<svg width="30" height="34" viewBox="0 0 30 34" fill="none" xmlns="http://www.w3.org/2000/svg">
<path d="M30 25H27.9683L26.6667 19.795V13.3333C26.6634 10.5303 25.651 7.82206 23.8147 5.70421C21.9784 3.58636 19.441 2.20044 16.6667 1.8V0H13.3333V1.8C10.559 2.20044 8.02159 3.58636 6.1853 5.70421C4.34901 7.82206 3.33662 10.5303 3.33333 13.3333V19.795L2.03167 25H0V28.3333H8.57C8.93379 29.7626 9.76343 31.03 10.9279 31.9352C12.0923 32.8404 13.5251 33.3318 15 33.3318C16.4749 33.3318 17.9077 32.8404 19.0721 31.9352C20.2366 31.03 21.0662 29.7626 21.43 28.3333H30V25ZM6.61667 20.405L6.66667 13.3333C6.66667 11.1232 7.54464 9.00358 9.10744 7.44078C10.6702 5.87797 12.7899 5 15 5C17.2101 5 19.3298 5.87797 20.8926 7.44078C22.4554 9.00358 23.3333 11.1232 23.3333 13.3333V20L24.5467 25H5.46833L6.61667 20.405ZM15 30C14.4175 29.9982 13.8457 29.8433 13.3419 29.5508C12.8382 29.2583 12.4202 28.8384 12.13 28.3333H17.87C17.5798 28.8384 17.1618 29.2583 16.6581 29.5508C16.1543 29.8433 15.5825 29.9982 15 30Z" fill="#9A9AB0"/>
</svg>
