<svg width="38" height="38" viewBox="0 0 38 38" fill="none" xmlns="http://www.w3.org/2000/svg">
<path fill-rule="evenodd" clip-rule="evenodd" d="M18.9998 37.3346C8.87462 37.3346 0.666504 29.1265 0.666504 19.0013C0.666504 8.87608 8.87462 0.667969 18.9998 0.667969C29.1251 0.667969 37.3332 8.87608 37.3332 19.0013C37.3332 29.1265 29.1251 37.3346 18.9998 37.3346ZM31.3323 27.5424C33.0142 25.1185 33.9998 22.175 33.9998 19.0013C33.9998 10.717 27.2841 4.0013 18.9998 4.0013C10.7156 4.0013 3.99984 10.717 3.99984 19.0013C3.99984 22.175 4.98547 25.1185 6.66734 27.5424C8.54309 25.0647 12.9508 24.0013 18.9998 24.0013C25.0488 24.0013 29.4566 25.0647 31.3323 27.5424ZM28.941 30.2342C28.4532 28.4802 24.9488 27.3346 18.9998 27.3346C13.0509 27.3346 9.54651 28.4802 9.0587 30.2342C11.7053 32.5783 15.1864 34.0013 18.9998 34.0013C22.8133 34.0013 26.2943 32.5783 28.941 30.2342ZM18.9998 9.0013C14.965 9.0013 12.3332 11.9276 12.3332 15.668C12.3332 21.3803 15.2679 24.0013 18.9998 24.0013C22.6966 24.0013 25.6665 21.4673 25.6665 16.0013C25.6665 12.2039 23.0235 9.0013 18.9998 9.0013ZM15.6665 15.668C15.6665 19.4501 17.0302 20.668 18.9998 20.668C20.9627 20.668 22.3332 19.4986 22.3332 16.0013C22.3332 13.9187 21.0259 12.3346 18.9998 12.3346C16.8894 12.3346 15.6665 13.6943 15.6665 15.668Z" fill="#9A9AB0"/>
</svg>
